<svg width="580" height="454" viewBox="0 0 580 454" fill="none" xmlns="http://www.w3.org/2000/svg">
<g filter="url(#filter0_f_14_7)">
<path d="M290 291.424C344.277 291.424 388.278 247.426 388.278 193.153C388.278 138.879 344.277 94.8809 290 94.8809C235.723 94.8809 191.722 138.879 191.722 193.153C191.722 247.426 235.723 291.424 290 291.424Z" fill="#4DE3ED" fill-opacity="0.8"/>
</g>
<path d="M19.6075 213.29V202.078H28.5008V156.84H19.6075V145.628H47.4475C56.5341 145.628 63.4297 147.948 68.1341 152.587C72.903 157.163 75.2875 163.993 75.2875 173.079V185.839C75.2875 194.925 72.903 201.788 68.1341 206.427C63.4297 211.003 56.5341 213.29 47.4475 213.29H19.6075ZM41.2608 201.691H47.6408C52.7963 201.691 56.5663 200.338 58.9508 197.631C61.3352 194.925 62.5275 191.123 62.5275 186.225V172.693C62.5275 167.731 61.3352 163.929 58.9508 161.287C56.5663 158.58 52.7963 157.227 47.6408 157.227H41.2608V201.691ZM104.933 214.643C100.164 214.643 95.9433 213.645 92.2699 211.647C88.6611 209.585 85.8255 206.717 83.7633 203.044C81.7655 199.307 80.7666 194.925 80.7666 189.898V188.738C80.7666 183.712 81.7655 179.362 83.7633 175.689C85.7611 171.952 88.5644 169.084 92.1733 167.086C95.7822 165.024 99.9711 163.993 104.74 163.993C109.444 163.993 113.537 165.057 117.017 167.183C120.497 169.245 123.203 172.145 125.137 175.883C127.07 179.556 128.037 183.841 128.037 188.738V192.895H93.1399C93.2688 196.181 94.4933 198.856 96.8133 200.918C99.1333 202.98 101.969 204.011 105.32 204.011C108.736 204.011 111.249 203.27 112.86 201.788C114.471 200.305 115.695 198.662 116.533 196.858L126.49 202.078C125.588 203.753 124.267 205.59 122.527 207.587C120.851 209.52 118.595 211.196 115.76 212.614C112.924 213.967 109.315 214.643 104.933 214.643ZM93.2366 183.809H115.663C115.405 181.038 114.278 178.815 112.28 177.139C110.347 175.464 107.801 174.626 104.643 174.626C101.357 174.626 98.7466 175.464 96.8133 177.139C94.8799 178.815 93.6877 181.038 93.2366 183.809ZM144.387 213.29L129.114 165.346H142.067L153.184 204.397H154.924L166.04 165.346H178.994L163.72 213.29H144.387ZM209.978 214.643C201.471 214.643 194.704 212.324 189.678 207.684C184.651 202.98 182.138 196.278 182.138 187.578V171.339C182.138 162.64 184.651 155.97 189.678 151.331C194.704 146.627 201.471 144.274 209.978 144.274C218.484 144.274 225.251 146.627 230.278 151.331C235.304 155.97 237.818 162.64 237.818 171.339V187.578C237.818 196.278 235.304 202.98 230.278 207.684C225.251 212.324 218.484 214.643 209.978 214.643ZM209.978 203.237C214.747 203.237 218.452 201.852 221.094 199.081C223.737 196.31 225.058 192.605 225.058 187.965V170.953C225.058 166.313 223.737 162.608 221.094 159.837C218.452 157.066 214.747 155.68 209.978 155.68C205.273 155.68 201.568 157.066 198.861 159.837C196.219 162.608 194.898 166.313 194.898 170.953V187.965C194.898 192.605 196.219 196.31 198.861 199.081C201.568 201.852 205.273 203.237 209.978 203.237ZM246.174 232.622V165.346H258.16V171.146H259.9C260.996 169.277 262.704 167.634 265.024 166.216C267.344 164.734 270.663 163.993 274.98 163.993C278.847 163.993 282.424 164.96 285.71 166.893C288.997 168.762 291.639 171.533 293.637 175.206C295.635 178.879 296.634 183.325 296.634 188.545V190.092C296.634 195.311 295.635 199.758 293.637 203.431C291.639 207.104 288.997 209.907 285.71 211.84C282.424 213.709 278.847 214.643 274.98 214.643C272.08 214.643 269.632 214.289 267.634 213.58C265.7 212.936 264.122 212.098 262.897 211.067C261.737 209.971 260.803 208.876 260.094 207.781H258.354V232.622H246.174ZM271.307 204.011C275.109 204.011 278.235 202.819 280.684 200.434C283.197 197.986 284.454 194.441 284.454 189.802V188.835C284.454 184.195 283.197 180.683 280.684 178.299C278.17 175.85 275.045 174.626 271.307 174.626C267.569 174.626 264.444 175.85 261.93 178.299C259.417 180.683 258.16 184.195 258.16 188.835V189.802C258.16 194.441 259.417 197.986 261.93 200.434C264.444 202.819 267.569 204.011 271.307 204.011ZM324.509 214.643C318.258 214.643 313.135 213.29 309.139 210.584C305.144 207.877 302.727 204.011 301.889 198.984L313.103 196.085C313.554 198.34 314.295 200.112 315.326 201.401C316.421 202.69 317.743 203.624 319.289 204.204C320.9 204.72 322.64 204.977 324.509 204.977C327.345 204.977 329.439 204.494 330.793 203.527C332.146 202.496 332.823 201.24 332.823 199.758C332.823 198.276 332.178 197.148 330.889 196.375C329.6 195.537 327.538 194.86 324.703 194.345L321.996 193.861C318.645 193.217 315.584 192.347 312.813 191.252C310.041 190.092 307.818 188.513 306.143 186.515C304.467 184.518 303.629 181.94 303.629 178.782C303.629 174.014 305.369 170.373 308.849 167.86C312.329 165.282 316.905 163.993 322.576 163.993C327.925 163.993 332.371 165.185 335.916 167.57C339.46 169.954 341.78 173.079 342.876 176.946L331.566 180.426C331.05 177.977 329.987 176.237 328.376 175.206C326.829 174.175 324.896 173.659 322.576 173.659C320.256 173.659 318.484 174.078 317.259 174.916C316.035 175.689 315.423 176.785 315.423 178.202C315.423 179.749 316.067 180.909 317.356 181.682C318.645 182.391 320.385 182.939 322.576 183.325L325.283 183.809C328.891 184.453 332.146 185.323 335.046 186.419C338.01 187.45 340.33 188.964 342.006 190.962C343.746 192.895 344.616 195.537 344.616 198.888C344.616 203.914 342.779 207.813 339.106 210.584C335.497 213.29 330.631 214.643 324.509 214.643ZM349.746 213.29V202.078H358.64V156.84H349.746V145.628H377.586C386.673 145.628 393.569 147.948 398.273 152.587C403.042 157.163 405.426 163.993 405.426 173.079V185.839C405.426 194.925 403.042 201.788 398.273 206.427C393.569 211.003 386.673 213.29 377.586 213.29H349.746ZM371.4 201.691H377.78C382.935 201.691 386.705 200.338 389.09 197.631C391.474 194.925 392.666 191.123 392.666 186.225V172.693C392.666 167.731 391.474 163.929 389.09 161.287C386.705 158.58 382.935 157.227 377.78 157.227H371.4V201.691ZM428.113 214.643C424.697 214.643 421.636 214.063 418.929 212.904C416.223 211.679 414.064 209.939 412.453 207.684C410.906 205.364 410.133 202.561 410.133 199.274C410.133 195.988 410.906 193.249 412.453 191.058C414.064 188.803 416.255 187.127 419.026 186.032C421.861 184.872 425.084 184.292 428.693 184.292H441.839V181.585C441.839 179.33 441.13 177.494 439.713 176.076C438.295 174.594 436.039 173.853 432.946 173.853C429.917 173.853 427.661 174.561 426.179 175.979C424.697 177.332 423.73 179.105 423.279 181.296L412.066 177.526C412.839 175.077 414.064 172.854 415.739 170.856C417.479 168.794 419.767 167.151 422.603 165.926C425.503 164.638 429.015 163.993 433.139 163.993C439.455 163.993 444.449 165.572 448.123 168.73C451.796 171.887 453.633 176.462 453.633 182.455V200.338C453.633 202.271 454.535 203.237 456.339 203.237H460.206V213.29H452.086C449.701 213.29 447.736 212.71 446.189 211.55C444.643 210.39 443.869 208.844 443.869 206.911V206.814H442.033C441.775 207.587 441.195 208.618 440.293 209.907C439.39 211.131 437.973 212.227 436.039 213.194C434.106 214.16 431.464 214.643 428.113 214.643ZM430.239 204.784C433.655 204.784 436.426 203.85 438.553 201.981C440.744 200.048 441.839 197.502 441.839 194.345V193.378H429.563C427.307 193.378 425.535 193.861 424.246 194.828C422.957 195.795 422.313 197.148 422.313 198.888C422.313 200.628 422.989 202.045 424.343 203.141C425.696 204.236 427.661 204.784 430.239 204.784ZM469.788 232.622V221.99H495.888C497.692 221.99 498.595 221.023 498.595 219.09V207.007H496.855C496.339 208.103 495.534 209.198 494.438 210.294C493.342 211.389 491.86 212.291 489.991 213C488.122 213.709 485.738 214.063 482.838 214.063C479.1 214.063 475.814 213.226 472.978 211.55C470.207 209.81 468.048 207.426 466.501 204.397C464.955 201.369 464.181 197.889 464.181 193.958V165.346H476.361V192.991C476.361 196.6 477.231 199.307 478.971 201.111C480.776 202.915 483.321 203.817 486.608 203.817C490.346 203.817 493.246 202.593 495.308 200.144C497.37 197.631 498.401 194.151 498.401 189.705V165.346H510.581V221.796C510.581 225.083 509.615 227.693 507.681 229.626C505.748 231.623 503.17 232.622 499.948 232.622H469.788ZM540.826 214.643C534.575 214.643 529.451 213.29 525.456 210.584C521.46 207.877 519.044 204.011 518.206 198.984L529.419 196.085C529.87 198.34 530.611 200.112 531.643 201.401C532.738 202.69 534.059 203.624 535.606 204.204C537.217 204.72 538.957 204.977 540.826 204.977C543.661 204.977 545.756 204.494 547.109 203.527C548.463 202.496 549.139 201.24 549.139 199.758C549.139 198.276 548.495 197.148 547.206 196.375C545.917 195.537 543.855 194.86 541.019 194.345L538.313 193.861C534.961 193.217 531.9 192.347 529.129 191.252C526.358 190.092 524.135 188.513 522.459 186.515C520.784 184.518 519.946 181.94 519.946 178.782C519.946 174.014 521.686 170.373 525.166 167.86C528.646 165.282 533.221 163.993 538.893 163.993C544.241 163.993 548.688 165.185 552.233 167.57C555.777 169.954 558.097 173.079 559.193 176.946L547.883 180.426C547.367 177.977 546.304 176.237 544.693 175.206C543.146 174.175 541.213 173.659 538.893 173.659C536.573 173.659 534.8 174.078 533.576 174.916C532.351 175.689 531.739 176.785 531.739 178.202C531.739 179.749 532.384 180.909 533.673 181.682C534.961 182.391 536.701 182.939 538.893 183.325L541.599 183.809C545.208 184.453 548.463 185.323 551.363 186.419C554.327 187.45 556.647 188.964 558.323 190.962C560.063 192.895 560.933 195.537 560.933 198.888C560.933 203.914 559.096 207.813 555.423 210.584C551.814 213.29 546.948 214.643 540.826 214.643Z" fill="#D9D9D9"/>
<path d="M19.6075 213.29V202.078H28.5008V156.84H19.6075V145.628H47.4475C56.5341 145.628 63.4297 147.948 68.1341 152.587C72.903 157.163 75.2875 163.993 75.2875 173.079V185.839C75.2875 194.925 72.903 201.788 68.1341 206.427C63.4297 211.003 56.5341 213.29 47.4475 213.29H19.6075ZM41.2608 201.691H47.6408C52.7963 201.691 56.5663 200.338 58.9508 197.631C61.3352 194.925 62.5275 191.123 62.5275 186.225V172.693C62.5275 167.731 61.3352 163.929 58.9508 161.287C56.5663 158.58 52.7963 157.227 47.6408 157.227H41.2608V201.691ZM104.933 214.643C100.164 214.643 95.9433 213.645 92.2699 211.647C88.6611 209.585 85.8255 206.717 83.7633 203.044C81.7655 199.307 80.7666 194.925 80.7666 189.898V188.738C80.7666 183.712 81.7655 179.362 83.7633 175.689C85.7611 171.952 88.5644 169.084 92.1733 167.086C95.7822 165.024 99.9711 163.993 104.74 163.993C109.444 163.993 113.537 165.057 117.017 167.183C120.497 169.245 123.203 172.145 125.137 175.883C127.07 179.556 128.037 183.841 128.037 188.738V192.895H93.1399C93.2688 196.181 94.4933 198.856 96.8133 200.918C99.1333 202.98 101.969 204.011 105.32 204.011C108.736 204.011 111.249 203.27 112.86 201.788C114.471 200.305 115.695 198.662 116.533 196.858L126.49 202.078C125.588 203.753 124.267 205.59 122.527 207.587C120.851 209.52 118.595 211.196 115.76 212.614C112.924 213.967 109.315 214.643 104.933 214.643ZM93.2366 183.809H115.663C115.405 181.038 114.278 178.815 112.28 177.139C110.347 175.464 107.801 174.626 104.643 174.626C101.357 174.626 98.7466 175.464 96.8133 177.139C94.8799 178.815 93.6877 181.038 93.2366 183.809ZM144.387 213.29L129.114 165.346H142.067L153.184 204.397H154.924L166.04 165.346H178.994L163.72 213.29H144.387ZM209.978 214.643C201.471 214.643 194.704 212.324 189.678 207.684C184.651 202.98 182.138 196.278 182.138 187.578V171.339C182.138 162.64 184.651 155.97 189.678 151.331C194.704 146.627 201.471 144.274 209.978 144.274C218.484 144.274 225.251 146.627 230.278 151.331C235.304 155.97 237.818 162.64 237.818 171.339V187.578C237.818 196.278 235.304 202.98 230.278 207.684C225.251 212.324 218.484 214.643 209.978 214.643ZM209.978 203.237C214.747 203.237 218.452 201.852 221.094 199.081C223.737 196.31 225.058 192.605 225.058 187.965V170.953C225.058 166.313 223.737 162.608 221.094 159.837C218.452 157.066 214.747 155.68 209.978 155.68C205.273 155.68 201.568 157.066 198.861 159.837C196.219 162.608 194.898 166.313 194.898 170.953V187.965C194.898 192.605 196.219 196.31 198.861 199.081C201.568 201.852 205.273 203.237 209.978 203.237ZM246.174 232.622V165.346H258.16V171.146H259.9C260.996 169.277 262.704 167.634 265.024 166.216C267.344 164.734 270.663 163.993 274.98 163.993C278.847 163.993 282.424 164.96 285.71 166.893C288.997 168.762 291.639 171.533 293.637 175.206C295.635 178.879 296.634 183.325 296.634 188.545V190.092C296.634 195.311 295.635 199.758 293.637 203.431C291.639 207.104 288.997 209.907 285.71 211.84C282.424 213.709 278.847 214.643 274.98 214.643C272.08 214.643 269.632 214.289 267.634 213.58C265.7 212.936 264.122 212.098 262.897 211.067C261.737 209.971 260.803 208.876 260.094 207.781H258.354V232.622H246.174ZM271.307 204.011C275.109 204.011 278.235 202.819 280.684 200.434C283.197 197.986 284.454 194.441 284.454 189.802V188.835C284.454 184.195 283.197 180.683 280.684 178.299C278.17 175.85 275.045 174.626 271.307 174.626C267.569 174.626 264.444 175.85 261.93 178.299C259.417 180.683 258.16 184.195 258.16 188.835V189.802C258.16 194.441 259.417 197.986 261.93 200.434C264.444 202.819 267.569 204.011 271.307 204.011ZM324.509 214.643C318.258 214.643 313.135 213.29 309.139 210.584C305.144 207.877 302.727 204.011 301.889 198.984L313.103 196.085C313.554 198.34 314.295 200.112 315.326 201.401C316.421 202.69 317.743 203.624 319.289 204.204C320.9 204.72 322.64 204.977 324.509 204.977C327.345 204.977 329.439 204.494 330.793 203.527C332.146 202.496 332.823 201.24 332.823 199.758C332.823 198.276 332.178 197.148 330.889 196.375C329.6 195.537 327.538 194.86 324.703 194.345L321.996 193.861C318.645 193.217 315.584 192.347 312.813 191.252C310.041 190.092 307.818 188.513 306.143 186.515C304.467 184.518 303.629 181.94 303.629 178.782C303.629 174.014 305.369 170.373 308.849 167.86C312.329 165.282 316.905 163.993 322.576 163.993C327.925 163.993 332.371 165.185 335.916 167.57C339.46 169.954 341.78 173.079 342.876 176.946L331.566 180.426C331.05 177.977 329.987 176.237 328.376 175.206C326.829 174.175 324.896 173.659 322.576 173.659C320.256 173.659 318.484 174.078 317.259 174.916C316.035 175.689 315.423 176.785 315.423 178.202C315.423 179.749 316.067 180.909 317.356 181.682C318.645 182.391 320.385 182.939 322.576 183.325L325.283 183.809C328.891 184.453 332.146 185.323 335.046 186.419C338.01 187.45 340.33 188.964 342.006 190.962C343.746 192.895 344.616 195.537 344.616 198.888C344.616 203.914 342.779 207.813 339.106 210.584C335.497 213.29 330.631 214.643 324.509 214.643ZM349.746 213.29V202.078H358.64V156.84H349.746V145.628H377.586C386.673 145.628 393.569 147.948 398.273 152.587C403.042 157.163 405.426 163.993 405.426 173.079V185.839C405.426 194.925 403.042 201.788 398.273 206.427C393.569 211.003 386.673 213.29 377.586 213.29H349.746ZM371.4 201.691H377.78C382.935 201.691 386.705 200.338 389.09 197.631C391.474 194.925 392.666 191.123 392.666 186.225V172.693C392.666 167.731 391.474 163.929 389.09 161.287C386.705 158.58 382.935 157.227 377.78 157.227H371.4V201.691ZM428.113 214.643C424.697 214.643 421.636 214.063 418.929 212.904C416.223 211.679 414.064 209.939 412.453 207.684C410.906 205.364 410.133 202.561 410.133 199.274C410.133 195.988 410.906 193.249 412.453 191.058C414.064 188.803 416.255 187.127 419.026 186.032C421.861 184.872 425.084 184.292 428.693 184.292H441.839V181.585C441.839 179.33 441.13 177.494 439.713 176.076C438.295 174.594 436.039 173.853 432.946 173.853C429.917 173.853 427.661 174.561 426.179 175.979C424.697 177.332 423.73 179.105 423.279 181.296L412.066 177.526C412.839 175.077 414.064 172.854 415.739 170.856C417.479 168.794 419.767 167.151 422.603 165.926C425.503 164.638 429.015 163.993 433.139 163.993C439.455 163.993 444.449 165.572 448.123 168.73C451.796 171.887 453.633 176.462 453.633 182.455V200.338C453.633 202.271 454.535 203.237 456.339 203.237H460.206V213.29H452.086C449.701 213.29 447.736 212.71 446.189 211.55C444.643 210.39 443.869 208.844 443.869 206.911V206.814H442.033C441.775 207.587 441.195 208.618 440.293 209.907C439.39 211.131 437.973 212.227 436.039 213.194C434.106 214.16 431.464 214.643 428.113 214.643ZM430.239 204.784C433.655 204.784 436.426 203.85 438.553 201.981C440.744 200.048 441.839 197.502 441.839 194.345V193.378H429.563C427.307 193.378 425.535 193.861 424.246 194.828C422.957 195.795 422.313 197.148 422.313 198.888C422.313 200.628 422.989 202.045 424.343 203.141C425.696 204.236 427.661 204.784 430.239 204.784ZM469.788 232.622V221.99H495.888C497.692 221.99 498.595 221.023 498.595 219.09V207.007H496.855C496.339 208.103 495.534 209.198 494.438 210.294C493.342 211.389 491.86 212.291 489.991 213C488.122 213.709 485.738 214.063 482.838 214.063C479.1 214.063 475.814 213.226 472.978 211.55C470.207 209.81 468.048 207.426 466.501 204.397C464.955 201.369 464.181 197.889 464.181 193.958V165.346H476.361V192.991C476.361 196.6 477.231 199.307 478.971 201.111C480.776 202.915 483.321 203.817 486.608 203.817C490.346 203.817 493.246 202.593 495.308 200.144C497.37 197.631 498.401 194.151 498.401 189.705V165.346H510.581V221.796C510.581 225.083 509.615 227.693 507.681 229.626C505.748 231.623 503.17 232.622 499.948 232.622H469.788ZM540.826 214.643C534.575 214.643 529.451 213.29 525.456 210.584C521.46 207.877 519.044 204.011 518.206 198.984L529.419 196.085C529.87 198.34 530.611 200.112 531.643 201.401C532.738 202.69 534.059 203.624 535.606 204.204C537.217 204.72 538.957 204.977 540.826 204.977C543.661 204.977 545.756 204.494 547.109 203.527C548.463 202.496 549.139 201.24 549.139 199.758C549.139 198.276 548.495 197.148 547.206 196.375C545.917 195.537 543.855 194.86 541.019 194.345L538.313 193.861C534.961 193.217 531.9 192.347 529.129 191.252C526.358 190.092 524.135 188.513 522.459 186.515C520.784 184.518 519.946 181.94 519.946 178.782C519.946 174.014 521.686 170.373 525.166 167.86C528.646 165.282 533.221 163.993 538.893 163.993C544.241 163.993 548.688 165.185 552.233 167.57C555.777 169.954 558.097 173.079 559.193 176.946L547.883 180.426C547.367 177.977 546.304 176.237 544.693 175.206C543.146 174.175 541.213 173.659 538.893 173.659C536.573 173.659 534.8 174.078 533.576 174.916C532.351 175.689 531.739 176.785 531.739 178.202C531.739 179.749 532.384 180.909 533.673 181.682C534.961 182.391 536.701 182.939 538.893 183.325L541.599 183.809C545.208 184.453 548.463 185.323 551.363 186.419C554.327 187.45 556.647 188.964 558.323 190.962C560.063 192.895 560.933 195.537 560.933 198.888C560.933 203.914 559.096 207.813 555.423 210.584C551.814 213.29 546.948 214.643 540.826 214.643Z" fill="url(#paint0_linear_14_7)"/>
<path d="M19.6075 213.29V202.078H28.5008V156.84H19.6075V145.628H47.4475C56.5341 145.628 63.4297 147.948 68.1341 152.587C72.903 157.163 75.2875 163.993 75.2875 173.079V185.839C75.2875 194.925 72.903 201.788 68.1341 206.427C63.4297 211.003 56.5341 213.29 47.4475 213.29H19.6075ZM41.2608 201.691H47.6408C52.7963 201.691 56.5663 200.338 58.9508 197.631C61.3352 194.925 62.5275 191.123 62.5275 186.225V172.693C62.5275 167.731 61.3352 163.929 58.9508 161.287C56.5663 158.58 52.7963 157.227 47.6408 157.227H41.2608V201.691ZM104.933 214.643C100.164 214.643 95.9433 213.645 92.2699 211.647C88.6611 209.585 85.8255 206.717 83.7633 203.044C81.7655 199.307 80.7666 194.925 80.7666 189.898V188.738C80.7666 183.712 81.7655 179.362 83.7633 175.689C85.7611 171.952 88.5644 169.084 92.1733 167.086C95.7822 165.024 99.9711 163.993 104.74 163.993C109.444 163.993 113.537 165.057 117.017 167.183C120.497 169.245 123.203 172.145 125.137 175.883C127.07 179.556 128.037 183.841 128.037 188.738V192.895H93.1399C93.2688 196.181 94.4933 198.856 96.8133 200.918C99.1333 202.98 101.969 204.011 105.32 204.011C108.736 204.011 111.249 203.27 112.86 201.788C114.471 200.305 115.695 198.662 116.533 196.858L126.49 202.078C125.588 203.753 124.267 205.59 122.527 207.587C120.851 209.52 118.595 211.196 115.76 212.614C112.924 213.967 109.315 214.643 104.933 214.643ZM93.2366 183.809H115.663C115.405 181.038 114.278 178.815 112.28 177.139C110.347 175.464 107.801 174.626 104.643 174.626C101.357 174.626 98.7466 175.464 96.8133 177.139C94.8799 178.815 93.6877 181.038 93.2366 183.809ZM144.387 213.29L129.114 165.346H142.067L153.184 204.397H154.924L166.04 165.346H178.994L163.72 213.29H144.387ZM209.978 214.643C201.471 214.643 194.704 212.324 189.678 207.684C184.651 202.98 182.138 196.278 182.138 187.578V171.339C182.138 162.64 184.651 155.97 189.678 151.331C194.704 146.627 201.471 144.274 209.978 144.274C218.484 144.274 225.251 146.627 230.278 151.331C235.304 155.97 237.818 162.64 237.818 171.339V187.578C237.818 196.278 235.304 202.98 230.278 207.684C225.251 212.324 218.484 214.643 209.978 214.643ZM209.978 203.237C214.747 203.237 218.452 201.852 221.094 199.081C223.737 196.31 225.058 192.605 225.058 187.965V170.953C225.058 166.313 223.737 162.608 221.094 159.837C218.452 157.066 214.747 155.68 209.978 155.68C205.273 155.68 201.568 157.066 198.861 159.837C196.219 162.608 194.898 166.313 194.898 170.953V187.965C194.898 192.605 196.219 196.31 198.861 199.081C201.568 201.852 205.273 203.237 209.978 203.237ZM246.174 232.622V165.346H258.16V171.146H259.9C260.996 169.277 262.704 167.634 265.024 166.216C267.344 164.734 270.663 163.993 274.98 163.993C278.847 163.993 282.424 164.96 285.71 166.893C288.997 168.762 291.639 171.533 293.637 175.206C295.635 178.879 296.634 183.325 296.634 188.545V190.092C296.634 195.311 295.635 199.758 293.637 203.431C291.639 207.104 288.997 209.907 285.71 211.84C282.424 213.709 278.847 214.643 274.98 214.643C272.08 214.643 269.632 214.289 267.634 213.58C265.7 212.936 264.122 212.098 262.897 211.067C261.737 209.971 260.803 208.876 260.094 207.781H258.354V232.622H246.174ZM271.307 204.011C275.109 204.011 278.235 202.819 280.684 200.434C283.197 197.986 284.454 194.441 284.454 189.802V188.835C284.454 184.195 283.197 180.683 280.684 178.299C278.17 175.85 275.045 174.626 271.307 174.626C267.569 174.626 264.444 175.85 261.93 178.299C259.417 180.683 258.16 184.195 258.16 188.835V189.802C258.16 194.441 259.417 197.986 261.93 200.434C264.444 202.819 267.569 204.011 271.307 204.011ZM324.509 214.643C318.258 214.643 313.135 213.29 309.139 210.584C305.144 207.877 302.727 204.011 301.889 198.984L313.103 196.085C313.554 198.34 314.295 200.112 315.326 201.401C316.421 202.69 317.743 203.624 319.289 204.204C320.9 204.72 322.64 204.977 324.509 204.977C327.345 204.977 329.439 204.494 330.793 203.527C332.146 202.496 332.823 201.24 332.823 199.758C332.823 198.276 332.178 197.148 330.889 196.375C329.6 195.537 327.538 194.86 324.703 194.345L321.996 193.861C318.645 193.217 315.584 192.347 312.813 191.252C310.041 190.092 307.818 188.513 306.143 186.515C304.467 184.518 303.629 181.94 303.629 178.782C303.629 174.014 305.369 170.373 308.849 167.86C312.329 165.282 316.905 163.993 322.576 163.993C327.925 163.993 332.371 165.185 335.916 167.57C339.46 169.954 341.78 173.079 342.876 176.946L331.566 180.426C331.05 177.977 329.987 176.237 328.376 175.206C326.829 174.175 324.896 173.659 322.576 173.659C320.256 173.659 318.484 174.078 317.259 174.916C316.035 175.689 315.423 176.785 315.423 178.202C315.423 179.749 316.067 180.909 317.356 181.682C318.645 182.391 320.385 182.939 322.576 183.325L325.283 183.809C328.891 184.453 332.146 185.323 335.046 186.419C338.01 187.45 340.33 188.964 342.006 190.962C343.746 192.895 344.616 195.537 344.616 198.888C344.616 203.914 342.779 207.813 339.106 210.584C335.497 213.29 330.631 214.643 324.509 214.643ZM349.746 213.29V202.078H358.64V156.84H349.746V145.628H377.586C386.673 145.628 393.569 147.948 398.273 152.587C403.042 157.163 405.426 163.993 405.426 173.079V185.839C405.426 194.925 403.042 201.788 398.273 206.427C393.569 211.003 386.673 213.29 377.586 213.29H349.746ZM371.4 201.691H377.78C382.935 201.691 386.705 200.338 389.09 197.631C391.474 194.925 392.666 191.123 392.666 186.225V172.693C392.666 167.731 391.474 163.929 389.09 161.287C386.705 158.58 382.935 157.227 377.78 157.227H371.4V201.691ZM428.113 214.643C424.697 214.643 421.636 214.063 418.929 212.904C416.223 211.679 414.064 209.939 412.453 207.684C410.906 205.364 410.133 202.561 410.133 199.274C410.133 195.988 410.906 193.249 412.453 191.058C414.064 188.803 416.255 187.127 419.026 186.032C421.861 184.872 425.084 184.292 428.693 184.292H441.839V181.585C441.839 179.33 441.13 177.494 439.713 176.076C438.295 174.594 436.039 173.853 432.946 173.853C429.917 173.853 427.661 174.561 426.179 175.979C424.697 177.332 423.73 179.105 423.279 181.296L412.066 177.526C412.839 175.077 414.064 172.854 415.739 170.856C417.479 168.794 419.767 167.151 422.603 165.926C425.503 164.638 429.015 163.993 433.139 163.993C439.455 163.993 444.449 165.572 448.123 168.73C451.796 171.887 453.633 176.462 453.633 182.455V200.338C453.633 202.271 454.535 203.237 456.339 203.237H460.206V213.29H452.086C449.701 213.29 447.736 212.71 446.189 211.55C444.643 210.39 443.869 208.844 443.869 206.911V206.814H442.033C441.775 207.587 441.195 208.618 440.293 209.907C439.39 211.131 437.973 212.227 436.039 213.194C434.106 214.16 431.464 214.643 428.113 214.643ZM430.239 204.784C433.655 204.784 436.426 203.85 438.553 201.981C440.744 200.048 441.839 197.502 441.839 194.345V193.378H429.563C427.307 193.378 425.535 193.861 424.246 194.828C422.957 195.795 422.313 197.148 422.313 198.888C422.313 200.628 422.989 202.045 424.343 203.141C425.696 204.236 427.661 204.784 430.239 204.784ZM469.788 232.622V221.99H495.888C497.692 221.99 498.595 221.023 498.595 219.09V207.007H496.855C496.339 208.103 495.534 209.198 494.438 210.294C493.342 211.389 491.86 212.291 489.991 213C488.122 213.709 485.738 214.063 482.838 214.063C479.1 214.063 475.814 213.226 472.978 211.55C470.207 209.81 468.048 207.426 466.501 204.397C464.955 201.369 464.181 197.889 464.181 193.958V165.346H476.361V192.991C476.361 196.6 477.231 199.307 478.971 201.111C480.776 202.915 483.321 203.817 486.608 203.817C490.346 203.817 493.246 202.593 495.308 200.144C497.37 197.631 498.401 194.151 498.401 189.705V165.346H510.581V221.796C510.581 225.083 509.615 227.693 507.681 229.626C505.748 231.623 503.17 232.622 499.948 232.622H469.788ZM540.826 214.643C534.575 214.643 529.451 213.29 525.456 210.584C521.46 207.877 519.044 204.011 518.206 198.984L529.419 196.085C529.87 198.34 530.611 200.112 531.643 201.401C532.738 202.69 534.059 203.624 535.606 204.204C537.217 204.72 538.957 204.977 540.826 204.977C543.661 204.977 545.756 204.494 547.109 203.527C548.463 202.496 549.139 201.24 549.139 199.758C549.139 198.276 548.495 197.148 547.206 196.375C545.917 195.537 543.855 194.86 541.019 194.345L538.313 193.861C534.961 193.217 531.9 192.347 529.129 191.252C526.358 190.092 524.135 188.513 522.459 186.515C520.784 184.518 519.946 181.94 519.946 178.782C519.946 174.014 521.686 170.373 525.166 167.86C528.646 165.282 533.221 163.993 538.893 163.993C544.241 163.993 548.688 165.185 552.233 167.57C555.777 169.954 558.097 173.079 559.193 176.946L547.883 180.426C547.367 177.977 546.304 176.237 544.693 175.206C543.146 174.175 541.213 173.659 538.893 173.659C536.573 173.659 534.8 174.078 533.576 174.916C532.351 175.689 531.739 176.785 531.739 178.202C531.739 179.749 532.384 180.909 533.673 181.682C534.961 182.391 536.701 182.939 538.893 183.325L541.599 183.809C545.208 184.453 548.463 185.323 551.363 186.419C554.327 187.45 556.647 188.964 558.323 190.962C560.063 192.895 560.933 195.537 560.933 198.888C560.933 203.914 559.096 207.813 555.423 210.584C551.814 213.29 546.948 214.643 540.826 214.643Z" fill="url(#paint1_linear_14_7)"/>
<path d="M20.8344 132.74L24.9846 116.952H30.1724L34.3226 132.74H31.2551L30.398 129.266H24.7591L23.902 132.74H20.8344ZM25.4583 126.515H29.6987L27.7815 118.824H27.3755L25.4583 126.515ZM35.4972 132.74V116.952H38.3392V132.74H35.4972ZM40.683 132.74V121.553H43.4799V122.771H43.8859C44.0813 122.395 44.4046 122.072 44.8558 121.801C45.3069 121.515 45.9008 121.372 46.6376 121.372C47.4346 121.372 48.0736 121.53 48.5549 121.846C49.036 122.146 49.4044 122.545 49.6601 123.041H50.0661C50.3217 122.56 50.6826 122.162 51.1488 121.846C51.6148 121.53 52.2765 121.372 53.1336 121.372C53.8253 121.372 54.4494 121.523 55.0058 121.823C55.5771 122.109 56.0282 122.552 56.3591 123.154C56.7049 123.741 56.8779 124.485 56.8779 125.387V132.74H54.0359V125.59C54.0359 124.974 53.878 124.515 53.5622 124.214C53.2464 123.898 52.8028 123.741 52.2314 123.741C51.5848 123.741 51.0811 123.951 50.7202 124.372C50.3743 124.778 50.2014 125.364 50.2014 126.131V132.74H47.3594V125.59C47.3594 124.974 47.2015 124.515 46.8858 124.214C46.57 123.898 46.1264 123.741 45.555 123.741C44.9084 123.741 44.4046 123.951 44.0438 124.372C43.6978 124.778 43.525 125.364 43.525 126.131V132.74H40.683ZM62.6025 133.055C61.8055 133.055 61.0912 132.92 60.4597 132.649C59.8281 132.363 59.3244 131.957 58.9485 131.432C58.5876 130.89 58.4071 130.236 58.4071 129.469C58.4071 128.702 58.5876 128.064 58.9485 127.552C59.3244 127.026 59.8356 126.635 60.4822 126.379C61.1438 126.109 61.8958 125.973 62.7378 125.973H65.8054V125.342C65.8054 124.816 65.64 124.387 65.3091 124.056C64.9783 123.711 64.452 123.538 63.7302 123.538C63.0235 123.538 62.4972 123.703 62.1514 124.034C61.8055 124.349 61.58 124.763 61.4747 125.274L58.8582 124.395C59.0387 123.823 59.3244 123.305 59.7154 122.838C60.1214 122.357 60.6552 121.974 61.3168 121.688C61.9935 121.388 62.813 121.237 63.7754 121.237C65.249 121.237 66.4144 121.605 67.2715 122.342C68.1286 123.079 68.5571 124.146 68.5571 125.545V129.717C68.5571 130.168 68.7676 130.394 69.1887 130.394H70.0909V132.74H68.1962C67.6398 132.74 67.1812 132.604 66.8204 132.334C66.4595 132.063 66.279 131.702 66.279 131.251V131.229H65.8505C65.7903 131.409 65.655 131.65 65.4445 131.95C65.234 132.236 64.9031 132.492 64.452 132.717C64.0009 132.943 63.3844 133.055 62.6025 133.055ZM63.0987 130.755C63.8956 130.755 64.5422 130.537 65.0385 130.101C65.5497 129.65 65.8054 129.056 65.8054 128.319V128.093H62.9408C62.4145 128.093 62.001 128.206 61.7002 128.432C61.3995 128.657 61.2491 128.973 61.2491 129.379C61.2491 129.785 61.407 130.116 61.7228 130.371C62.0386 130.627 62.4972 130.755 63.0987 130.755ZM74.8339 132.74C74.097 132.74 73.4956 132.514 73.0294 132.063C72.5783 131.597 72.3527 130.98 72.3527 130.214V123.898H69.5559V121.553H72.3527V118.079H75.1947V121.553H78.2623V123.898H75.1947V129.717C75.1947 130.168 75.4052 130.394 75.8263 130.394H77.9916V132.74H74.8339ZM81.2475 137.25V134.77H87.3375C87.758 134.77 87.9691 134.544 87.9691 134.093V131.274H87.5631C87.4423 131.529 87.2546 131.785 86.9992 132.04C86.743 132.296 86.3974 132.507 85.9616 132.672C85.525 132.837 84.9692 132.92 84.2925 132.92C83.4201 132.92 82.6532 132.724 81.9919 132.334C81.345 131.928 80.8415 131.371 80.4804 130.665C80.1195 129.958 79.9391 129.146 79.9391 128.229V121.553H82.7813V128.003C82.7813 128.845 82.9843 129.477 83.3903 129.898C83.8108 130.319 84.4053 130.529 85.1722 130.529C86.0438 130.529 86.7205 130.243 87.2022 129.672C87.6831 129.086 87.924 128.274 87.924 127.236V121.553H90.766V134.724C90.766 135.491 90.5404 136.1 90.0893 136.551C89.6382 137.018 89.0364 137.25 88.2849 137.25H81.2475Z" fill="white"/>
<path d="M396.871 76H182.129C174.878 76 169 81.1487 169 87.5C169 93.8513 174.878 99 182.129 99H396.871C404.122 99 410 93.8513 410 87.5C410 81.1487 404.122 76 396.871 76Z" fill="#F5C342" fill-opacity="0.24"/>
<mask id="mask0_14_7" style="mask-type:luminance" maskUnits="userSpaceOnUse" x="178" y="79" width="17" height="17">
<path d="M194.652 79.5763H178.556V95.6864H194.652V79.5763Z" fill="white"/>
</mask>
<g mask="url(#mask0_14_7)">
<path d="M186.601 79.5909C186.365 79.5909 186.179 79.7834 186.179 80.0194V82.6671C186.179 82.9095 186.365 83.0956 186.601 83.0956C186.843 83.0956 187.028 82.9095 187.028 82.6671V80.0194C187.028 79.7834 186.843 79.5909 186.601 79.5909ZM188.714 79.8051C188.485 79.7262 188.263 79.8406 188.192 80.1048L187.95 80.9828C187.885 81.2107 188.014 81.4467 188.242 81.5039C188.47 81.5611 188.699 81.4395 188.764 81.2035L188.999 80.3263C189.063 80.083 188.942 79.8687 188.714 79.8051ZM190.633 80.6686C190.426 80.5542 190.169 80.6187 190.048 80.8184L188.727 83.1238C188.599 83.3308 188.671 83.5878 188.877 83.7021C189.078 83.8238 189.342 83.7593 189.456 83.5451L190.783 81.247C190.897 81.04 190.834 80.7902 190.633 80.6686ZM192.354 81.9035C192.182 81.7319 191.912 81.7464 191.755 81.9035L191.104 82.5454C190.926 82.7315 190.926 82.974 191.104 83.1455C191.276 83.3236 191.533 83.3236 191.697 83.1528L192.332 82.51C192.511 82.3247 192.518 82.075 192.354 81.9035ZM193.582 83.6168C193.46 83.4098 193.203 83.3453 192.997 83.4597L190.698 84.7872C190.483 84.9088 190.42 85.1658 190.541 85.372C190.655 85.5725 190.912 85.6434 191.119 85.5226L193.424 84.1943C193.624 84.0735 193.689 83.8238 193.582 83.6168ZM194.452 85.5435C194.395 85.3083 194.153 85.1722 193.938 85.2366L193.046 85.4791C192.818 85.5435 192.683 85.765 192.761 86.0293C192.818 86.2145 193.018 86.3643 193.275 86.2999L194.138 86.0574C194.388 85.993 194.51 85.7651 194.452 85.5435ZM194.652 87.6354C194.652 87.3994 194.467 87.2141 194.224 87.2141H191.576C191.333 87.2141 191.147 87.3994 191.147 87.6354C191.147 87.8779 191.333 88.0632 191.576 88.0632H194.224C194.467 88.0632 194.652 87.8779 194.652 87.6354ZM194.452 89.762C194.517 89.5195 194.41 89.298 194.16 89.2271L193.275 88.9766C193.032 88.913 192.811 89.0483 192.753 89.2771C192.696 89.5123 192.825 89.7547 193.046 89.8119L193.924 90.0407C194.174 90.1051 194.388 89.9762 194.452 89.762ZM193.574 91.6605C193.689 91.4608 193.624 91.2038 193.424 91.083L191.119 89.7547C190.912 89.6339 190.655 89.7048 190.541 89.9045C190.42 90.1116 190.483 90.3685 190.698 90.4901L192.997 91.8176C193.203 91.932 193.454 91.8676 193.574 91.6605ZM192.347 93.3884C192.525 93.2095 192.511 92.9381 192.361 92.7818L191.705 92.139C191.533 91.9747 191.276 91.9537 191.09 92.139C190.926 92.3178 190.94 92.5603 191.104 92.7311L191.747 93.3739C191.925 93.5527 192.175 93.5591 192.347 93.3884ZM190.627 94.6087C190.834 94.4943 190.897 94.2374 190.783 94.0303L189.456 91.7322C189.342 91.518 189.078 91.4535 188.877 91.5679C188.671 91.6895 188.599 91.9465 188.727 92.1535L190.048 94.4516C190.169 94.6586 190.42 94.7231 190.627 94.6087ZM188.714 95.4939C188.984 95.4295 189.063 95.1943 189.006 94.9728L188.777 94.073C188.714 93.8451 188.47 93.7162 188.242 93.7806C187.993 93.8523 187.885 94.0875 187.95 94.3018L188.206 95.1725C188.278 95.4086 188.457 95.5439 188.714 95.4939ZM186.601 95.6865C186.843 95.6865 187.028 95.4939 187.028 95.2579V92.6102C187.028 92.3678 186.843 92.1817 186.601 92.1817C186.365 92.1817 186.179 92.3678 186.179 92.6102V95.2579C186.179 95.4939 186.365 95.6865 186.601 95.6865ZM184.459 95.4867C184.723 95.5721 184.959 95.415 185.015 95.1943L185.259 94.3163C185.323 94.0875 185.194 93.8523 184.965 93.7951C184.737 93.7379 184.509 93.8596 184.445 94.0948L184.209 94.9728C184.144 95.2152 184.223 95.415 184.459 95.4867ZM182.582 94.6087C182.781 94.7231 183.046 94.6586 183.16 94.4516L184.488 92.1535C184.608 91.9465 184.538 91.6895 184.338 91.5679C184.131 91.4535 183.874 91.518 183.752 91.7322L182.432 94.0303C182.31 94.2374 182.375 94.4871 182.582 94.6087ZM180.861 93.3811C181.04 93.5527 181.297 93.5527 181.454 93.3956L182.103 92.7528C182.282 92.5675 182.288 92.3243 182.11 92.1535C181.946 91.9819 181.675 91.9747 181.511 92.1463L180.876 92.7882C180.697 92.9743 180.69 93.2095 180.861 93.3811ZM179.633 91.6605C179.748 91.8676 180.005 91.932 180.212 91.8176L182.51 90.4901C182.724 90.3685 182.789 90.1115 182.674 89.9118C182.553 89.7048 182.303 89.6339 182.089 89.7547L179.79 91.083C179.583 91.2038 179.519 91.4535 179.633 91.6605ZM178.755 89.741C178.813 89.969 179.055 90.0906 179.277 90.0407L180.162 89.8192C180.404 89.7547 180.526 89.534 180.461 89.298C180.397 89.07 180.169 88.9339 179.933 88.9911L179.077 89.2271C178.813 89.298 178.698 89.5195 178.755 89.741ZM178.556 87.6354C178.556 87.8779 178.748 88.0632 178.984 88.0632H181.632C181.882 88.0632 182.061 87.8779 182.061 87.6354C182.061 87.3994 181.882 87.2141 181.632 87.2141H178.984C178.748 87.2141 178.556 87.3994 178.556 87.6354ZM178.748 85.5363C178.698 85.765 178.841 85.993 179.055 86.0574L179.933 86.3072C180.176 86.3643 180.404 86.2363 180.454 86.0003C180.504 85.7723 180.397 85.529 180.162 85.4727L179.284 85.2511C179.027 85.1867 178.798 85.3156 178.748 85.5363ZM179.641 83.6095C179.519 83.8165 179.583 84.0735 179.79 84.1943L182.089 85.5226C182.303 85.6434 182.553 85.5725 182.674 85.372C182.789 85.1658 182.724 84.9088 182.51 84.7872L180.212 83.4597C180.005 83.3453 179.755 83.4098 179.641 83.6095ZM180.854 81.8962C180.683 82.0605 180.704 82.332 180.861 82.4955L181.497 83.1383C181.675 83.3163 181.918 83.3236 182.103 83.1455C182.268 82.9812 182.275 82.7243 182.096 82.539L181.461 81.9035C181.275 81.7174 181.033 81.7246 180.854 81.8962ZM182.582 80.6614C182.375 80.783 182.31 81.04 182.432 81.247L183.752 83.5451C183.874 83.7593 184.131 83.8238 184.331 83.7021C184.538 83.5878 184.608 83.3308 184.488 83.1238L183.16 80.8184C183.038 80.6187 182.789 80.5542 182.582 80.6614ZM184.495 79.7834C184.259 79.8333 184.131 80.0403 184.202 80.3118L184.438 81.2107C184.501 81.4322 184.723 81.5539 184.987 81.4749C185.237 81.3968 185.337 81.197 185.266 80.9683L185.015 80.1048C184.944 79.8478 184.737 79.7407 184.495 79.7834Z" fill="#F5C342"/>
</g>
<path d="M203.49 92L206.066 81.78H208.32L210.91 92H209.118L208.558 89.522H205.842L205.282 92H203.49ZM206.164 88.094H208.236L207.62 85.35C207.517 84.8927 207.429 84.482 207.354 84.118C207.279 83.7447 207.228 83.474 207.2 83.306C207.172 83.474 207.121 83.7447 207.046 84.118C206.981 84.482 206.892 84.888 206.78 85.336L206.164 88.094ZM216.071 92C215.567 92 215.123 91.8973 214.741 91.692C214.367 91.4867 214.073 91.1973 213.859 90.824C213.644 90.4413 213.537 90.0027 213.537 89.508V83.362H211.073V81.78H215.287V89.508C215.287 89.788 215.366 90.012 215.525 90.18C215.693 90.3387 215.917 90.418 216.197 90.418H218.521V92H216.071ZM219.117 92V84.3H220.545V85.336H220.839L220.601 85.588C220.601 85.1587 220.722 84.8133 220.965 84.552C221.208 84.2907 221.52 84.16 221.903 84.16C222.314 84.16 222.631 84.328 222.855 84.664C223.088 85 223.205 85.4527 223.205 86.022L222.897 85.336H223.373L223.191 85.588C223.191 85.1587 223.312 84.8133 223.555 84.552C223.798 84.2907 224.12 84.16 224.521 84.16C224.997 84.16 225.375 84.3373 225.655 84.692C225.935 85.0467 226.075 85.5273 226.075 86.134V92H224.535V86.204C224.535 85.952 224.479 85.756 224.367 85.616C224.255 85.4667 224.092 85.392 223.877 85.392C223.672 85.392 223.508 85.462 223.387 85.602C223.275 85.742 223.219 85.9427 223.219 86.204V92H221.959V86.204C221.959 85.9427 221.903 85.742 221.791 85.602C221.679 85.462 221.516 85.392 221.301 85.392C221.086 85.392 220.923 85.462 220.811 85.602C220.708 85.742 220.657 85.9427 220.657 86.204V92H219.117ZM229.43 92.14C228.636 92.14 228.011 91.93 227.554 91.51C227.096 91.09 226.868 90.5253 226.868 89.816C226.868 89.06 227.12 88.4767 227.624 88.066C228.128 87.6553 228.842 87.45 229.766 87.45H231.684V86.792C231.684 86.4187 231.562 86.1293 231.32 85.924C231.077 85.7093 230.746 85.602 230.326 85.602C229.943 85.602 229.626 85.686 229.374 85.854C229.122 86.022 228.972 86.2507 228.926 86.54H227.218C227.302 85.812 227.628 85.2333 228.198 84.804C228.767 84.3747 229.495 84.16 230.382 84.16C231.324 84.16 232.066 84.398 232.608 84.874C233.158 85.3407 233.434 85.9753 233.434 86.778V92H231.74V90.656H231.46L231.74 90.278C231.74 90.8473 231.53 91.3 231.11 91.636C230.69 91.972 230.13 92.14 229.43 92.14ZM230.004 90.824C230.498 90.824 230.9 90.698 231.208 90.446C231.525 90.194 231.684 89.8673 231.684 89.466V88.528H229.794C229.439 88.528 229.154 88.6307 228.94 88.836C228.725 89.0413 228.618 89.312 228.618 89.648C228.618 90.012 228.739 90.3013 228.982 90.516C229.234 90.7213 229.574 90.824 230.004 90.824ZM238.818 92C238.081 92 237.502 91.7947 237.082 91.384C236.671 90.9733 236.466 90.4087 236.466 89.69V85.882H234.38V84.3H236.466V82.13H238.23V84.3H241.184V85.882H238.23V89.69C238.23 90.1753 238.468 90.418 238.944 90.418H241.044V92H238.818ZM243.797 94.52L244.875 91.58L242.005 84.3H243.923L245.351 88.234C245.425 88.4487 245.5 88.71 245.575 89.018C245.649 89.3167 245.705 89.564 245.743 89.76C245.789 89.564 245.85 89.3167 245.925 89.018C245.999 88.71 246.074 88.4487 246.149 88.234L247.493 84.3H249.341L245.631 94.52H243.797ZM251.267 94.24L252.387 89.886H254.627L252.807 94.24H251.267ZM268.784 92.14C268.084 92.14 267.478 92.0233 266.964 91.79C266.451 91.5567 266.054 91.2253 265.774 90.796C265.504 90.3573 265.364 89.844 265.354 89.256H267.104C267.104 89.676 267.254 90.0073 267.552 90.25C267.86 90.4833 268.276 90.6 268.798 90.6C269.302 90.6 269.694 90.4833 269.974 90.25C270.264 90.0167 270.408 89.6947 270.408 89.284C270.408 88.9387 270.306 88.64 270.1 88.388C269.904 88.1267 269.62 87.9493 269.246 87.856L268.07 87.534C267.268 87.3287 266.647 86.96 266.208 86.428C265.779 85.896 265.564 85.252 265.564 84.496C265.564 83.9173 265.695 83.4133 265.956 82.984C266.218 82.5547 266.586 82.2233 267.062 81.99C267.548 81.7567 268.117 81.64 268.77 81.64C269.76 81.64 270.544 81.8967 271.122 82.41C271.701 82.914 271.995 83.5953 272.004 84.454H270.254C270.254 84.0527 270.124 83.74 269.862 83.516C269.601 83.2827 269.232 83.166 268.756 83.166C268.299 83.166 267.944 83.2733 267.692 83.488C267.44 83.7027 267.314 84.006 267.314 84.398C267.314 84.7527 267.408 85.056 267.594 85.308C267.79 85.5507 268.07 85.7233 268.434 85.826L269.652 86.162C270.464 86.3673 271.085 86.736 271.514 87.268C271.944 87.7907 272.158 88.4393 272.158 89.214C272.158 89.7927 272.018 90.306 271.738 90.754C271.458 91.1927 271.066 91.5333 270.562 91.776C270.058 92.0187 269.466 92.14 268.784 92.14ZM276.465 92.14C275.811 92.14 275.242 92.014 274.757 91.762C274.271 91.51 273.893 91.16 273.623 90.712C273.361 90.2547 273.231 89.7227 273.231 89.116V87.184C273.231 86.5773 273.361 86.05 273.623 85.602C273.893 85.1447 274.271 84.79 274.757 84.538C275.242 84.286 275.811 84.16 276.465 84.16C277.109 84.16 277.669 84.286 278.145 84.538C278.63 84.79 279.003 85.1447 279.265 85.602C279.535 86.05 279.671 86.5773 279.671 87.184V88.57H274.925V89.116C274.925 89.6573 275.055 90.068 275.317 90.348C275.578 90.6187 275.965 90.754 276.479 90.754C276.871 90.754 277.188 90.6887 277.431 90.558C277.673 90.418 277.827 90.2173 277.893 89.956H279.615C279.484 90.6187 279.129 91.1507 278.551 91.552C277.981 91.944 277.286 92.14 276.465 92.14ZM277.977 87.59V87.17C277.977 86.638 277.851 86.232 277.599 85.952C277.347 85.6627 276.969 85.518 276.465 85.518C275.961 85.518 275.578 85.6627 275.317 85.952C275.055 86.2413 274.925 86.652 274.925 87.184V87.478L278.103 87.45L277.977 87.59ZM281.023 94.52V84.3H282.731V85.77H283.123L282.731 86.176C282.731 85.5507 282.918 85.0607 283.291 84.706C283.665 84.342 284.169 84.16 284.803 84.16C285.578 84.16 286.199 84.426 286.665 84.958C287.132 85.49 287.365 86.204 287.365 87.1V89.186C287.365 89.7833 287.258 90.306 287.043 90.754C286.838 91.1927 286.544 91.5333 286.161 91.776C285.779 92.0187 285.326 92.14 284.803 92.14C284.169 92.14 283.665 91.9627 283.291 91.608C282.918 91.244 282.731 90.7493 282.731 90.124L283.123 90.53H282.717L282.773 92.364V94.52H281.023ZM284.187 90.628C284.635 90.628 284.985 90.4973 285.237 90.236C285.489 89.9747 285.615 89.6013 285.615 89.116V87.184C285.615 86.6987 285.489 86.3253 285.237 86.064C284.985 85.8027 284.635 85.672 284.187 85.672C283.749 85.672 283.403 85.8073 283.151 86.078C282.899 86.3393 282.773 86.708 282.773 87.184V89.116C282.773 89.592 282.899 89.9653 283.151 90.236C283.403 90.4973 283.749 90.628 284.187 90.628ZM292.68 92C291.943 92 291.364 91.7947 290.944 91.384C290.533 90.9733 290.328 90.4087 290.328 89.69V85.882H288.242V84.3H290.328V82.13H292.092V84.3H295.046V85.882H292.092V89.69C292.092 90.1753 292.33 90.418 292.806 90.418H294.906V92H292.68ZM299.548 92.14C298.895 92.14 298.326 92.014 297.84 91.762C297.355 91.51 296.977 91.16 296.706 90.712C296.445 90.2547 296.314 89.7227 296.314 89.116V87.184C296.314 86.5773 296.445 86.05 296.706 85.602C296.977 85.1447 297.355 84.79 297.84 84.538C298.326 84.286 298.895 84.16 299.548 84.16C300.192 84.16 300.752 84.286 301.228 84.538C301.714 84.79 302.087 85.1447 302.348 85.602C302.619 86.05 302.754 86.5773 302.754 87.184V88.57H298.008V89.116C298.008 89.6573 298.139 90.068 298.4 90.348C298.662 90.6187 299.049 90.754 299.562 90.754C299.954 90.754 300.272 90.6887 300.514 90.558C300.757 90.418 300.911 90.2173 300.976 89.956H302.698C302.568 90.6187 302.213 91.1507 301.634 91.552C301.065 91.944 300.37 92.14 299.548 92.14ZM301.06 87.59V87.17C301.06 86.638 300.934 86.232 300.682 85.952C300.43 85.6627 300.052 85.518 299.548 85.518C299.044 85.518 298.662 85.6627 298.4 85.952C298.139 86.2413 298.008 86.652 298.008 87.184V87.478L301.186 87.45L301.06 87.59ZM303.757 92V84.3H305.185V85.336H305.479L305.241 85.588C305.241 85.1587 305.362 84.8133 305.605 84.552C305.848 84.2907 306.16 84.16 306.543 84.16C306.954 84.16 307.271 84.328 307.495 84.664C307.728 85 307.845 85.4527 307.845 86.022L307.537 85.336H308.013L307.831 85.588C307.831 85.1587 307.952 84.8133 308.195 84.552C308.438 84.2907 308.76 84.16 309.161 84.16C309.637 84.16 310.015 84.3373 310.295 84.692C310.575 85.0467 310.715 85.5273 310.715 86.134V92H309.175V86.204C309.175 85.952 309.119 85.756 309.007 85.616C308.895 85.4667 308.732 85.392 308.517 85.392C308.312 85.392 308.148 85.462 308.027 85.602C307.915 85.742 307.859 85.9427 307.859 86.204V92H306.599V86.204C306.599 85.9427 306.543 85.742 306.431 85.602C306.319 85.462 306.156 85.392 305.941 85.392C305.726 85.392 305.563 85.462 305.451 85.602C305.348 85.742 305.297 85.9427 305.297 86.204V92H303.757ZM315.581 92.14C314.947 92.14 314.443 91.9627 314.069 91.608C313.696 91.244 313.509 90.7493 313.509 90.124L313.901 90.53H313.509V92H311.801V81.78H313.551V83.936L313.495 85.77H313.901L313.509 86.176C313.509 85.5507 313.696 85.0607 314.069 84.706C314.443 84.342 314.947 84.16 315.581 84.16C316.356 84.16 316.977 84.426 317.443 84.958C317.91 85.49 318.143 86.2087 318.143 87.114V89.2C318.143 90.096 317.91 90.81 317.443 91.342C316.977 91.874 316.356 92.14 315.581 92.14ZM314.965 90.628C315.413 90.628 315.763 90.4973 316.015 90.236C316.267 89.9747 316.393 89.6013 316.393 89.116V87.184C316.393 86.6987 316.267 86.3253 316.015 86.064C315.763 85.8027 315.413 85.672 314.965 85.672C314.527 85.672 314.181 85.8073 313.929 86.078C313.677 86.3393 313.551 86.708 313.551 87.184V89.116C313.551 89.592 313.677 89.9653 313.929 90.236C314.181 90.4973 314.527 90.628 314.965 90.628ZM322.632 92.14C321.979 92.14 321.409 92.014 320.924 91.762C320.439 91.51 320.061 91.16 319.79 90.712C319.529 90.2547 319.398 89.7227 319.398 89.116V87.184C319.398 86.5773 319.529 86.05 319.79 85.602C320.061 85.1447 320.439 84.79 320.924 84.538C321.409 84.286 321.979 84.16 322.632 84.16C323.276 84.16 323.836 84.286 324.312 84.538C324.797 84.79 325.171 85.1447 325.432 85.602C325.703 86.05 325.838 86.5773 325.838 87.184V88.57H321.092V89.116C321.092 89.6573 321.223 90.068 321.484 90.348C321.745 90.6187 322.133 90.754 322.646 90.754C323.038 90.754 323.355 90.6887 323.598 90.558C323.841 90.418 323.995 90.2173 324.06 89.956H325.782C325.651 90.6187 325.297 91.1507 324.718 91.552C324.149 91.944 323.453 92.14 322.632 92.14ZM324.144 87.59V87.17C324.144 86.638 324.018 86.232 323.766 85.952C323.514 85.6627 323.136 85.518 322.632 85.518C322.128 85.518 321.745 85.6627 321.484 85.952C321.223 86.2413 321.092 86.652 321.092 87.184V87.478L324.27 87.45L324.144 87.59ZM327.429 92V84.3H329.081V85.77H329.515L328.997 86.666C328.997 85.8353 329.183 85.21 329.557 84.79C329.93 84.37 330.481 84.16 331.209 84.16C332.039 84.16 332.693 84.4167 333.169 84.93C333.645 85.4433 333.883 86.1527 333.883 87.058V87.618H332.049V87.184C332.049 86.6893 331.918 86.3067 331.657 86.036C331.405 85.7653 331.055 85.63 330.607 85.63C330.149 85.63 329.795 85.7653 329.543 86.036C329.3 86.3067 329.179 86.6893 329.179 87.184V92H327.429ZM345.702 92.14C345.03 92.14 344.446 92.028 343.952 91.804C343.457 91.5707 343.074 91.244 342.804 90.824C342.533 90.404 342.398 89.914 342.398 89.354C342.398 88.738 342.57 88.2107 342.916 87.772C343.261 87.3333 343.774 86.96 344.456 86.652L346.024 85.938C346.36 85.7793 346.621 85.5647 346.808 85.294C347.004 85.0233 347.102 84.72 347.102 84.384C347.102 84.0013 346.976 83.698 346.724 83.474C346.472 83.2407 346.131 83.124 345.702 83.124C345.272 83.124 344.927 83.2407 344.666 83.474C344.414 83.7073 344.288 84.0153 344.288 84.398C344.288 84.7247 344.386 85.0233 344.582 85.294C344.778 85.5647 345.039 85.7747 345.366 85.924L346.92 86.638C347.657 86.9647 348.189 87.352 348.516 87.8C348.842 88.2387 349.006 88.7567 349.006 89.354C349.006 90.2127 348.707 90.894 348.11 91.398C347.522 91.8927 346.719 92.14 345.702 92.14ZM345.702 90.642C346.187 90.642 346.57 90.516 346.85 90.264C347.139 90.0027 347.284 89.662 347.284 89.242C347.284 88.9153 347.186 88.6073 346.99 88.318C346.794 88.0193 346.523 87.7907 346.178 87.632L344.512 86.862C343.877 86.5633 343.392 86.2087 343.056 85.798C342.729 85.378 342.566 84.8787 342.566 84.3C342.566 83.7773 342.692 83.3153 342.944 82.914C343.196 82.5127 343.555 82.2 344.022 81.976C344.498 81.752 345.058 81.64 345.702 81.64C346.346 81.64 346.896 81.752 347.354 81.976C347.82 82.2 348.18 82.5127 348.432 82.914C348.693 83.3153 348.824 83.7773 348.824 84.3C348.824 84.888 348.66 85.3873 348.334 85.798C348.007 86.2087 347.526 86.5633 346.892 86.862L345.212 87.646C344.876 87.7953 344.61 88.0147 344.414 88.304C344.218 88.5933 344.12 88.9013 344.12 89.228C344.12 89.648 344.26 89.9887 344.54 90.25C344.829 90.5113 345.216 90.642 345.702 90.642ZM351.296 94.24L352.416 89.886H354.656L352.836 94.24H351.296ZM365.691 92V90.306L368.883 87.1C369.331 86.6427 369.662 86.232 369.877 85.868C370.092 85.4947 370.199 85.112 370.199 84.72C370.199 84.244 370.068 83.8753 369.807 83.614C369.546 83.3433 369.191 83.208 368.743 83.208C368.248 83.208 367.861 83.3527 367.581 83.642C367.301 83.922 367.161 84.314 367.161 84.818H365.411C365.42 84.1647 365.56 83.6047 365.831 83.138C366.111 82.662 366.503 82.2933 367.007 82.032C367.511 81.7707 368.099 81.64 368.771 81.64C369.415 81.64 369.975 81.7613 370.451 82.004C370.927 82.2467 371.296 82.5873 371.557 83.026C371.818 83.4647 371.949 83.9873 371.949 84.594C371.949 85.2193 371.786 85.8307 371.459 86.428C371.142 87.016 370.628 87.6507 369.919 88.332L367.791 90.418H372.075V92H365.691ZM376.48 92.14C375.817 92.14 375.243 92.014 374.758 91.762C374.272 91.51 373.894 91.1553 373.624 90.698C373.362 90.2407 373.232 89.704 373.232 89.088V84.692C373.232 84.076 373.362 83.5393 373.624 83.082C373.894 82.6247 374.272 82.27 374.758 82.018C375.243 81.766 375.817 81.64 376.48 81.64C377.152 81.64 377.726 81.766 378.202 82.018C378.687 82.27 379.06 82.6247 379.322 83.082C379.592 83.5393 379.728 84.076 379.728 84.692V89.088C379.728 89.704 379.592 90.2407 379.322 90.698C379.06 91.1553 378.687 91.51 378.202 91.762C377.716 92.014 377.142 92.14 376.48 92.14ZM376.48 90.628C376.965 90.628 377.352 90.488 377.642 90.208C377.931 89.928 378.076 89.5547 378.076 89.088V84.692C378.076 84.2253 377.931 83.852 377.642 83.572C377.352 83.292 376.965 83.152 376.48 83.152C375.994 83.152 375.607 83.292 375.318 83.572C375.028 83.852 374.884 84.2253 374.884 84.692V89.088C374.884 89.5547 375.028 89.928 375.318 90.208C375.607 90.488 375.994 90.628 376.48 90.628ZM376.48 87.8C376.209 87.8 375.985 87.7113 375.808 87.534C375.64 87.3567 375.556 87.128 375.556 86.848C375.556 86.568 375.64 86.344 375.808 86.176C375.976 86.008 376.2 85.924 376.48 85.924C376.76 85.924 376.984 86.008 377.152 86.176C377.32 86.344 377.404 86.568 377.404 86.848C377.404 87.128 377.32 87.3567 377.152 87.534C376.984 87.7113 376.76 87.8 376.48 87.8ZM381.08 92V90.306L384.272 87.1C384.72 86.6427 385.052 86.232 385.266 85.868C385.481 85.4947 385.588 85.112 385.588 84.72C385.588 84.244 385.458 83.8753 385.196 83.614C384.935 83.3433 384.58 83.208 384.132 83.208C383.638 83.208 383.25 83.3527 382.97 83.642C382.69 83.922 382.55 84.314 382.55 84.818H380.8C380.81 84.1647 380.95 83.6047 381.22 83.138C381.5 82.662 381.892 82.2933 382.396 82.032C382.9 81.7707 383.488 81.64 384.16 81.64C384.804 81.64 385.364 81.7613 385.84 82.004C386.316 82.2467 386.685 82.5873 386.946 83.026C387.208 83.4647 387.338 83.9873 387.338 84.594C387.338 85.2193 387.175 85.8307 386.848 86.428C386.531 87.016 386.018 87.6507 385.308 88.332L383.18 90.418H387.464V92H381.08ZM391.771 92.14C391.108 92.14 390.529 92.0187 390.035 91.776C389.549 91.5333 389.171 91.1927 388.901 90.754C388.63 90.3153 388.495 89.7973 388.495 89.2H390.259C390.259 89.6573 390.389 90.0167 390.651 90.278C390.921 90.53 391.299 90.656 391.785 90.656C392.27 90.656 392.643 90.5253 392.905 90.264C393.166 90.0027 393.297 89.648 393.297 89.2V88.402C393.297 87.9447 393.166 87.59 392.905 87.338C392.643 87.0767 392.27 86.946 391.785 86.946H390.637V85.364L392.891 83.278H388.957V81.78H394.669V83.362L391.785 86.008V85.448C392.793 85.448 393.591 85.714 394.179 86.246C394.767 86.778 395.061 87.4967 395.061 88.402V89.2C395.061 89.7973 394.925 90.3153 394.655 90.754C394.384 91.1927 394.001 91.5333 393.507 91.776C393.012 92.0187 392.433 92.14 391.771 92.14Z" fill="white"/>
<defs>
<filter id="filter0_f_14_7" x="-8.75177" y="-105.593" width="597.504" height="597.491" filterUnits="userSpaceOnUse" color-interpolation-filters="sRGB">
<feFlood flood-opacity="0" result="BackgroundImageFix"/>
<feBlend mode="normal" in="SourceGraphic" in2="BackgroundImageFix" result="shape"/>
<feGaussianBlur stdDeviation="100.237" result="effect1_foregroundBlur_14_7"/>
</filter>
<linearGradient id="paint0_linear_14_7" x1="281.542" y1="65.8827" x2="265.493" y2="248.613" gradientUnits="userSpaceOnUse">
<stop stop-color="#1B9D99"/>
<stop offset="1" stop-color="white" stop-opacity="0.32"/>
</linearGradient>
<linearGradient id="paint1_linear_14_7" x1="13.401" y1="168.283" x2="635.492" y2="354.496" gradientUnits="userSpaceOnUse">
<stop stop-color="#1B9D99"/>
<stop offset="1" stop-color="white" stop-opacity="0.32"/>
</linearGradient>
</defs>
</svg>
